# xmcd
#
# Track frame offsets:
#	150
#	26028
#	49180
#	64089
#	86091
#	107029
#	141611
#	157966
#	178613
#	194779
#	220062
#	241894
#	264854
#
# Disc length: 3761 seconds
#
# Revision: 0
# Processed by: cddbd v1.5.2PL0 Copyright (c) Steve Scherf et al.
# Submitted via: dBpowerAMP V4.0
#
DISCID=bd0eaf0d
DTITLE=Zakiya Hooker - Keeping It Real
DYEAR=2009
DGENRE=Blues
TTITLE0=Hug U Kiss U
TTITLE1=Cold Cold Feeling
TTITLE2=Crossroads
TTITLE3=Desconfio
TTITLE4=Keeping It Real
TTITLE5=End of the World Blues 
TTITLE6=Love Hotel
TTITLE7=Love Foreclosure
TTITLE8=One Bourbon One Scotch
TTITLE9=Scared To Love
TTITLE10=Over the Top
TTITLE11=What Am I Gonna Do
TTITLE12=Rock These Blues Away
EXTD=
EXTT0=
EXTT1=
EXTT2=
EXTT3=
EXTT4=
EXTT5=
EXTT6=
EXTT7=
EXTT8=
EXTT9=
EXTT10=
EXTT11=
EXTT12=
PLAYORDER=
